<?xml version="1.0" standalone="no"?>
<!DOCTYPE svg PUBLIC "-//W3C//DTD SVG 20010904//EN"
 "http://www.w3.org/TR/2001/REC-SVG-20010904/DTD/svg10.dtd">
<svg version="1.0" xmlns="http://www.w3.org/2000/svg"
 width="512.000000pt" height="512.000000pt" viewBox="0 0 512.000000 512.000000"
 preserveAspectRatio="xMidYMid meet">
<metadata>
Created by potrace 1.16, written by Peter Selinger 2001-2019
</metadata>
<g transform="translate(0.000000,512.000000) scale(0.100000,-0.100000)"
fill="#fff" stroke="none">
<path d="M2541 4495 c-7 -16 -22 -68 -33 -115 -11 -47 -25 -94 -31 -105 -6
-11 -10 -55 -8 -98 4 -126 4 -126 -107 -182 -53 -27 -101 -51 -105 -53 -19 -9
15 293 38 339 12 22 10 32 -18 91 -18 37 -34 67 -37 67 -5 0 -46 -57 -154
-213 -85 -125 -242 -462 -327 -705 -15 -41 -29 -66 -41 -69 -10 -2 -18 -8 -18
-13 0 -19 -21 -8 -30 16 -5 14 -12 25 -16 25 -12 0 6 -206 21 -250 15 -40 15
-45 1 -56 -20 -14 -20 -23 1 -46 15 -17 15 -18 -1 -18 -10 0 -27 5 -39 11 -16
7 -14 3 7 -15 16 -13 45 -27 65 -31 53 -10 79 -30 91 -73 10 -41 42 -419 38
-465 -2 -20 -6 -24 -18 -17 -27 15 -55 39 -46 40 5 0 18 -7 28 -17 10 -9 21
-14 24 -11 3 3 -11 18 -30 33 l-36 27 0 88 c0 48 -3 116 -7 151 -7 64 -7 64
-14 24 -5 -22 -8 -72 -8 -111 -1 -39 -8 -93 -16 -119 -8 -29 -12 -66 -8 -91 5
-41 7 -43 47 -50 52 -8 93 -29 106 -54 14 -26 0 -26 -54 -1 -58 27 -84 31 -96
16 -6 -8 -17 -12 -23 -10 -7 3 -23 -4 -35 -15 l-24 -20 41 -61 c23 -34 41 -65
41 -69 0 -4 -20 -28 -44 -52 -25 -24 -48 -58 -53 -78 -9 -31 -13 -35 -40 -32
-37 4 -99 -45 -119 -93 -15 -37 -87 -83 -252 -165 l-112 -55 206 -150 c347
-252 477 -350 529 -399 55 -52 46 -51 -30 4 -84 61 -83 55 3 -27 45 -43 83
-84 82 -91 0 -8 7 -11 18 -8 21 7 219 -108 270 -157 19 -17 81 -94 138 -170
58 -75 106 -137 109 -137 2 0 -5 19 -15 43 -11 24 -28 80 -38 125 l-19 81 43
-36 c46 -37 97 -101 137 -172 l24 -42 28 42 c27 41 173 189 186 189 8 0 -31
-139 -55 -195 -21 -49 -15 -42 58 62 87 125 224 260 329 322 48 29 94 50 102
47 27 -10 16 8 -42 66 -45 45 -53 58 -38 58 11 0 38 -20 61 -47 l41 -46 81 67
c45 37 82 70 82 72 0 7 -39 -15 -88 -48 -69 -47 -58 -27 21 37 185 153 634
495 648 495 37 0 -83 68 -151 86 -14 3 -71 33 -127 66 -81 47 -103 65 -103 82
0 30 -80 96 -117 96 -24 0 -31 6 -42 35 -9 25 -24 41 -52 55 -49 25 -50 46 -3
91 20 18 44 51 55 72 l20 37 -23 9 c-13 5 -31 18 -42 29 -17 20 -17 23 0 67
15 41 16 53 5 96 -7 27 -15 91 -16 142 -6 159 -22 169 -23 15 0 -153 -14 -217
-39 -196 -13 11 -14 37 -8 193 8 222 17 273 49 300 13 11 43 35 65 53 23 18
41 37 41 42 0 5 -22 8 -48 8 -26 -1 -57 4 -67 11 -17 10 -13 11 25 6 l46 -6
11 58 c18 89 27 238 16 258 -9 15 -11 12 -17 -19 -8 -41 -16 -45 -34 -15 -7
11 -19 18 -27 15 -10 -3 -17 11 -26 52 -34 165 -205 527 -385 818 l-69 111
-37 -66 c-33 -61 -35 -69 -22 -93 20 -38 44 -189 44 -274 0 -41 -2 -74 -5 -74
-3 0 -50 23 -105 50 l-100 50 -1 78 c0 74 -15 192 -18 143 -2 -41 -11 -17 -31
80 -11 52 -26 114 -33 139 l-14 45 -12 -30z m-7 -112 c-3 -32 -9 -161 -13
-286 -5 -155 -12 -232 -20 -240 -21 -21 -10 398 13 501 10 45 20 82 22 82 2 0
1 -26 -2 -57z m39 -338 c2 -82 1 -134 -3 -115 -4 19 -10 134 -13 255 -3 147
-2 185 3 115 4 -58 10 -172 13 -255z m431 115 c38 -69 72 -129 76 -135 10 -13
90 -196 90 -204 -1 -3 -20 32 -44 79 -24 47 -66 117 -94 155 -28 39 -72 108
-97 155 -26 47 -44 77 -41 66 23 -69 38 -242 44 -491 8 -318 11 -331 91 -392
68 -53 111 -45 194 35 l47 46 27 -27 c26 -26 27 -27 6 -27 -12 0 -32 -14 -47
-32 -14 -18 -26 -28 -26 -22 0 6 11 21 25 34 14 13 23 26 20 29 -10 10 -75
-63 -75 -85 0 -24 35 -74 52 -74 6 0 20 7 30 17 20 18 25 4 6 -15 -30 -30
-108 10 -108 57 0 17 -5 18 -40 14 -78 -11 -172 43 -212 121 -20 38 -22 61
-29 341 -6 249 -10 319 -29 410 -19 94 -20 115 -9 148 l12 38 32 -58 c17 -32
62 -114 99 -183z m-754 159 c0 -25 -7 -95 -15 -155 -12 -78 -16 -187 -15 -390
0 -171 -4 -292 -10 -310 -14 -37 -36 -53 -135 -94 -85 -35 -160 -44 -174 -22
-6 9 -12 -1 -19 -31 -11 -42 -36 -76 -48 -64 -3 3 2 19 10 36 24 46 20 65 -24
105 -22 20 -43 36 -46 36 -3 0 -19 -7 -37 -16 l-32 -16 34 36 c19 20 39 36 44
36 5 0 30 -23 56 -51 46 -50 48 -51 107 -52 86 0 139 34 193 123 11 19 21 29
21 22 0 -8 -8 -27 -17 -43 -22 -36 -8 -52 17 -19 29 38 31 67 29 377 -1 272 5
364 31 452 5 19 8 36 6 38 -5 5 -49 -88 -53 -112 -2 -11 -7 -159 -11 -330 -9
-340 -11 -349 -74 -421 -57 -65 -165 -96 -202 -58 -20 20 -20 33 2 62 l18 23
12 -36 c10 -27 19 -35 38 -35 33 0 93 32 124 66 l25 28 -32 -22 c-17 -13 -48
-29 -67 -37 -33 -14 -37 -14 -62 8 -33 28 -34 63 -5 111 21 33 87 88 140 116
24 12 24 12 18 -30 -6 -50 -50 -116 -91 -137 -27 -14 -31 -14 -43 3 -14 19
-16 12 -7 -23 4 -15 14 -23 29 -23 27 0 81 36 106 70 21 28 39 110 39 178 0
44 0 44 -22 29 -13 -8 -22 -20 -21 -26 2 -6 -4 -7 -14 -4 -9 4 -14 2 -11 -3 4
-5 -16 -24 -43 -42 -41 -27 -49 -29 -49 -15 0 19 -52 -68 -76 -127 l-14 -35 4
40 c2 22 19 72 37 110 33 68 36 71 111 110 85 44 88 49 87 170 0 60 0 60 -14
28 -13 -30 -59 -63 -88 -63 -18 0 -63 -49 -76 -83 -12 -31 3 -29 27 5 21 28
132 99 132 84 0 -56 -13 -76 -74 -110 -77 -43 -96 -64 -135 -148 -24 -52 -31
-81 -31 -128 0 -33 -2 -60 -5 -60 -22 0 -55 36 -55 60 0 41 52 182 132 360 87
194 121 255 222 403 85 124 96 129 96 46z m292 -324 l-9 -70 -2 80 c0 44 2
112 7 150 l7 70 3 -80 c1 -44 -1 -111 -6 -150z m79 -108 c-7 -23 -9 11 -10
129 -1 88 2 164 7 168 11 11 14 -259 3 -297z m360 109 c8 -32 22 -53 50 -75
21 -18 44 -41 50 -53 11 -20 8 -19 -21 5 -18 15 -34 26 -37 24 -2 -3 1 -24 6
-48 17 -78 21 -108 12 -114 -16 -9 -28 20 -35 84 -3 35 -13 78 -22 95 -16 32
-31 126 -21 126 4 0 12 -20 18 -44z m-531 -35 c0 -88 -4 -94 -99 -134 -48 -20
-91 -37 -94 -37 -4 0 -7 22 -7 49 0 45 3 53 34 76 42 32 137 85 154 85 7 0 12
-14 12 -39z m350 -33 c48 -31 50 -34 49 -78 -1 -44 -1 -44 -13 -17 -7 15 -37
53 -67 84 -58 60 -49 63 31 11z m-235 -373 c-1 -279 -12 -446 -26 -410 -12 30
-11 493 1 500 6 4 11 62 11 138 1 88 4 117 8 87 4 -25 6 -166 6 -315z m-25
219 c0 -76 -4 -123 -9 -119 -6 3 -8 42 -6 88 1 45 3 99 4 120 1 20 3 37 6 37
3 0 5 -57 5 -126z m255 75 c36 -37 37 -40 15 -34 -65 19 -95 47 -73 68 11 12
18 8 58 -34z m-265 -711 c8 -27 18 -48 22 -48 4 0 9 33 10 73 l1 72 7 -75 c7
-85 -1 -104 -31 -74 -33 34 -71 202 -71 314 l1 95 -13 -78 c-6 -43 -18 -82
-24 -86 -10 -6 -8 -16 8 -45 12 -20 30 -73 40 -118 17 -79 17 -82 0 -60 -10
12 -21 41 -25 65 -4 23 -15 61 -26 85 -20 48 -19 82 8 212 12 55 18 69 24 55
4 -11 7 27 7 85 l0 105 -18 -65 c-11 -36 -19 -66 -20 -67 0 -1 7 0 15 3 8 4
15 1 15 -5 0 -6 -4 -11 -9 -11 -5 0 -15 -16 -21 -36 -11 -33 -14 -35 -23 -18
-5 10 -21 32 -36 48 l-26 28 32 -4 32 -4 17 70 c9 39 31 98 48 131 l31 60 5
-330 c4 -248 9 -342 20 -377z m-110 683 c0 -9 -75 -57 -122 -78 -19 -8 -30 -9
-34 -1 -10 16 16 35 86 62 77 30 70 28 70 17z m237 -141 c12 -72 20 -100 31
-100 22 0 71 39 103 83 19 26 29 34 29 23 0 -10 -29 -47 -65 -83 -56 -56 -65
-70 -71 -111 -3 -28 0 -77 9 -120 14 -68 14 -76 -3 -115 -22 -51 -33 -142 -16
-128 6 5 58 22 116 37 79 20 134 28 225 30 l120 3 -113 -14 c-62 -7 -143 -22
-180 -34 -37 -11 -85 -23 -108 -27 -36 -5 -50 -16 -109 -85 -37 -43 -71 -79
-75 -79 -4 0 -13 6 -19 13 -14 18 -157 84 -196 92 -16 3 -7 -3 20 -13 61 -23
130 -58 168 -84 l27 -20 47 31 c25 17 51 31 57 31 6 0 5 4 -2 9 -22 13 54 68
118 86 30 9 70 22 88 30 29 13 32 13 32 -1 0 -11 5 -14 18 -9 62 24 213 31
332 16 42 -5 13 -8 -115 -12 -131 -3 -178 -8 -205 -21 -75 -36 -143 -58 -164
-53 -11 2 -15 2 -7 -1 8 -4 -17 -21 -64 -45 -43 -21 -91 -50 -107 -65 l-28
-28 -33 31 c-58 55 -177 102 -377 149 -80 19 -141 25 -260 28 -85 2 -136 2
-112 0 56 -7 54 -24 -3 -24 -33 0 -47 5 -54 19 -9 17 -3 19 79 30 119 17 278
-3 435 -54 11 -3 3 3 -18 15 -53 29 -174 57 -279 65 -145 11 -100 25 80 25
126 0 188 -5 252 -19 85 -19 174 -50 167 -58 -2 -2 -74 10 -158 27 -167 32
-195 36 -167 19 29 -16 311 -79 333 -73 14 3 36 -7 67 -31 53 -41 64 -40 115
18 25 28 31 47 37 103 4 38 14 79 21 91 11 17 12 29 5 49 -6 15 -15 63 -20
108 -25 226 -40 353 -45 376 -5 25 -5 25 10 -2 9 -15 23 -73 32 -128z m188
100 c3 0 5 -7 5 -15 0 -8 -5 -15 -11 -15 -12 0 -129 69 -129 75 0 2 29 -7 65
-20 36 -14 68 -25 70 -25z m142 -20 c6 -32 19 -48 68 -88 67 -53 125 -140 125
-186 0 -65 -62 -85 -134 -43 -73 42 -81 60 -84 218 -2 90 0 139 7 139 5 0 13
-18 18 -40z m-588 -47 c-5 -38 -8 -76 -8 -86 -1 -14 -6 -17 -23 -12 -30 9 -67
50 -64 70 2 12 88 92 102 95 0 0 -3 -30 -7 -67z m385 25 l28 -24 -33 -34 -33
-35 -7 52 c-4 29 -9 60 -13 68 -7 19 13 9 58 -27z m435 -185 c15 -79 -2 -82
-19 -3 -9 41 -20 86 -23 100 -5 16 0 11 13 -13 11 -20 25 -58 29 -84z m-895
23 c25 -34 50 -75 57 -92 13 -30 19 -209 8 -196 -4 4 -12 42 -17 85 -11 85
-36 133 -84 162 -25 14 -28 22 -28 66 0 30 4 48 10 44 5 -3 30 -34 54 -69z
m297 -251 c-8 -152 -22 -237 -37 -223 -2 3 1 18 7 34 8 18 14 116 18 269 4
193 6 225 13 165 4 -41 3 -151 -1 -245z m187 168 c-40 -43 -58 -87 -58 -143 0
-32 -4 -49 -10 -45 -5 3 -10 35 -10 71 0 61 2 66 40 104 45 45 78 56 38 13z
m-515 -11 c26 -28 47 -88 47 -133 0 -52 -15 -48 -57 17 -43 64 -45 97 -3 52
39 -43 39 -17 0 32 -16 21 -30 41 -30 44 0 13 28 5 43 -12z m562 -22 c-16 -17
-15 -19 7 -22 21 -3 21 -5 -12 -22 -20 -11 -29 -21 -22 -24 7 -2 19 2 28 8 32
27 25 -1 -9 -35 -43 -43 -61 -38 -54 16 5 39 55 112 70 102 4 -3 1 -13 -8 -23z
m527 -42 c24 -37 11 -51 -23 -26 -22 16 -26 25 -18 35 16 18 25 16 41 -9z
m-1677 -42 c-6 -21 -6 -21 6 -1 16 26 29 35 53 35 49 0 75 -70 37 -104 -18
-16 -19 -15 -15 31 l3 48 -9 -44 c-5 -24 -7 -48 -4 -52 8 -14 -52 -10 -64 4
-6 6 -13 30 -17 52 -4 22 -9 49 -12 60 -5 18 -4 18 11 6 10 -9 14 -22 11 -35z
m1645 -80 c5 -5 20 -2 36 9 35 23 27 -2 -10 -29 -27 -21 -28 -21 -42 -2 -15
21 -19 87 -6 100 4 4 8 -9 10 -31 2 -21 7 -42 12 -47z m-1072 15 c82 -55 124
-91 107 -91 -8 0 -155 97 -195 130 -54 43 5 17 88 -39z m626 37 c-23 -25 -132
-98 -148 -98 -12 0 31 36 103 87 54 37 72 42 45 11z m-691 -38 c23 -16 58 -43
77 -60 l35 -32 -34 6 c-74 13 -113 28 -144 56 -32 30 -24 40 16 19 21 -12 21
-11 5 8 -38 43 -13 45 45 3z m-390 -32 c-24 -26 -64 -47 -88 -45 -19 2 -65 51
-65 70 0 5 14 -3 31 -17 40 -34 64 -33 102 7 35 35 53 22 20 -15z m1141 33 c8
-13 -23 -36 -75 -56 -79 -29 -88 -14 -18 28 65 38 84 44 93 28z m-830 -68
c-22 -7 -208 13 -211 23 -2 6 25 14 69 20 69 8 75 8 112 -16 21 -13 34 -25 30
-27z m927 21 c-18 -8 -47 -17 -65 -20 l-31 -5 35 20 c19 11 49 20 65 20 l30
-1 -34 -14z m-1276 -94 c-3 -5 -29 -10 -56 -10 -31 0 -48 4 -44 10 3 6 29 10
56 10 31 0 48 -4 44 -10z m1612 -45 c-15 -14 -38 -25 -49 -25 -15 0 -9 7 23
24 56 31 61 31 26 1z m-1448 -171 c28 -147 20 -139 191 -205 58 -22 118 -49
133 -60 34 -25 45 -19 29 16 -13 27 -39 41 -198 100 -55 20 -102 40 -107 44
-9 8 -40 181 -34 187 2 3 10 -23 17 -57 20 -92 38 -107 199 -168 186 -71 181
-60 206 -445 9 -130 20 -269 25 -308 5 -40 7 -74 5 -76 -2 -2 -36 27 -77 65
-40 37 -84 77 -98 88 -41 32 50 -63 111 -116 93 -81 90 -95 84 323 -6 394 -9
416 -61 435 -16 6 -69 25 -119 43 -49 18 -122 47 -161 65 -74 34 -80 42 -103
130 -24 89 -2 85 23 -4 15 -54 20 -61 59 -79 45 -21 292 -112 304 -112 26 0
80 -22 81 -33 1 -6 6 -207 10 -444 5 -238 11 -436 15 -440 4 -3 8 113 9 258
l1 264 12 -290 c7 -159 14 -292 15 -295 12 -29 18 116 20 485 2 457 11 595 23
351 10 -207 9 -898 -2 -894 -5 2 -108 104 -228 228 -120 124 -222 225 -228
225 -5 0 -46 42 -91 93 -77 87 -83 98 -92 155 -13 73 -27 277 -19 277 2 0 10
-44 16 -97 25 -214 29 -226 77 -283 24 -28 58 -71 75 -96 18 -24 34 -42 37
-39 2 2 -7 18 -21 35 -15 17 -31 48 -37 68 -6 20 -26 92 -45 159 -19 67 -36
145 -39 175 l-6 53 16 -60 c33 -126 45 -167 49 -163 2 2 -3 30 -11 62 -26 98
-9 73 35 -55 44 -125 50 -171 10 -75 -12 31 -24 54 -26 52 -6 -5 42 -121 61
-148 l16 -22 0 22 c0 15 -4 21 -11 16 -7 -4 -9 0 -5 14 7 21 -56 308 -76 346
-6 11 -24 35 -39 53 -17 19 -40 71 -58 128 -32 98 -39 132 -21 105 7 -11 10
-4 10 28 0 77 16 44 39 -84z m1049 84 c-21 -39 -31 -46 -108 -75 -87 -32 -240
-66 -240 -53 0 15 52 41 207 104 87 36 159 65 161 65 2 1 -7 -18 -20 -41z
m122 -84 c-11 -48 -26 -94 -32 -101 -17 -21 -58 -40 -101 -47 -56 -9 -174 -72
-182 -96 -10 -31 -3 -32 41 -11 21 10 75 31 119 46 120 42 163 62 174 82 5 10
19 68 31 128 11 60 23 111 25 114 10 9 5 -58 -10 -145 -16 -89 -29 -120 -70
-161 -14 -15 -32 -63 -52 -140 -17 -65 -38 -134 -47 -153 -9 -19 -14 -26 -10
-15 30 106 75 289 72 299 -5 19 -199 -54 -267 -101 -43 -30 -58 -47 -67 -78
-7 -22 -13 -33 -13 -24 -1 8 10 52 23 97 19 67 21 82 9 82 -25 0 -61 -50 -72
-98 -11 -55 -34 -566 -29 -661 l3 -64 50 41 c83 66 248 235 336 342 45 55 84
100 86 100 23 0 -158 -219 -273 -330 -272 -260 -278 -266 -256 -229 21 35 23
55 32 355 14 431 25 501 83 538 40 26 251 103 285 104 57 1 78 23 91 94 25
126 35 164 39 141 2 -12 -6 -61 -18 -109z m-889 68 c146 -53 239 -97 239 -112
0 -13 0 -13 -100 9 -99 22 -240 69 -257 85 -12 11 -29 66 -20 66 3 0 65 -22
138 -48z m829 -92 c0 -23 -164 -96 -318 -140 -67 -19 -75 -24 -88 -57 -19 -43
-32 -158 -43 -363 l-8 -155 -2 150 c-1 83 4 214 11 292 l12 142 55 12 c66 13
227 69 303 103 59 27 78 31 78 16z m-1166 -358 c6 -94 6 -105 -7 -92 -11 11
-16 53 -20 170 -5 145 -5 151 7 92 7 -34 16 -111 20 -170z m1312 45 c-15 -146
-32 -187 -22 -55 6 85 24 193 31 186 2 -2 -2 -61 -9 -131z m-202 -8 c-9 -54
-19 -97 -22 -95 -2 3 4 53 14 111 10 59 20 102 22 96 2 -7 -4 -57 -14 -112z
m-79 -123 c-9 -85 -20 -167 -25 -183 -14 -47 -11 -1 10 177 11 91 20 170 21
175 0 6 3 4 6 -3 2 -7 -3 -82 -12 -166z m174 90 c-6 -26 -13 -45 -16 -43 -2 3
1 26 8 51 6 26 13 45 16 43 2 -3 -1 -26 -8 -51z m-1338 -3 c12 -15 12 -16 -5
-9 -19 7 -19 6 -2 -13 10 -11 40 -35 67 -53 27 -18 49 -37 49 -41 0 -9 -1 -8
-77 40 -50 32 -71 62 -58 83 8 13 10 13 26 -7z m1509 -13 c8 -5 11 -10 5 -10
-5 0 -17 5 -25 10 -8 5 -10 10 -5 10 6 0 17 -5 25 -10z m90 -4 c0 -20 -22 -56
-35 -56 -19 0 -19 5 1 35 14 22 34 34 34 21z m-383 -88 c-3 -7 -5 -2 -5 12 0
14 2 19 5 13 2 -7 2 -19 0 -25z m269 7 c-11 -8 -25 -15 -30 -15 -6 1 0 7 14
15 32 19 40 18 16 0z m-381 -112 c-4 -54 -11 -105 -16 -113 -7 -10 -8 2 -5 35
3 28 8 78 12 113 10 99 17 72 9 -35z m-1076 30 c53 -60 111 -150 147 -229 19
-40 34 -76 34 -80 0 -4 -23 26 -51 67 -28 41 -67 91 -87 112 -21 21 -36 39
-34 40 7 5 -11 37 -21 37 -5 0 -2 -9 8 -20 23 -25 14 -25 -36 1 -42 21 -109
78 -93 80 26 2 58 10 73 19 24 14 24 13 60 -27z m1188 -31 c-33 -81 -71 -133
-158 -217 -39 -38 -63 -56 -52 -40 12 17 31 39 43 50 48 42 138 165 160 219
13 31 25 54 27 52 2 -2 -7 -31 -20 -64z m388 44 c11 -7 28 -15 38 -17 17 -4
17 -5 -1 -15 -15 -10 -24 -7 -53 17 -35 29 -22 42 16 15z m-598 -148 c-3 -57
-13 -123 -21 -148 -10 -28 -14 -34 -11 -15 6 35 24 222 25 248 0 9 3 17 7 17
3 0 3 -46 0 -102z m554 62 c-27 -22 -87 -82 -131 -135 -84 -98 -104 -116 -73
-67 46 73 113 148 173 193 78 58 103 66 31 9z m-1495 -122 c78 -74 181 -234
162 -253 -2 -3 -24 26 -49 63 -50 76 -158 192 -179 192 -9 0 -7 -7 7 -22 20
-23 43 -61 43 -73 0 -3 -22 11 -50 32 -53 40 -63 68 -34 97 25 25 42 19 100
-36z m1550 -44 c26 -20 29 -54 5 -54 -6 0 -8 6 -5 14 3 9 -4 19 -18 26 -13 7
-38 24 -56 37 -25 19 -30 28 -22 38 8 10 16 8 40 -14 15 -14 41 -35 56 -47z
m-1120 -131 c22 -34 2 -28 -54 16 -49 39 -102 99 -138 156 -21 34 167 -136
192 -172z m-492 92 c48 -41 73 -72 97 -120 39 -80 34 -105 -9 -38 -35 55 -133
153 -153 153 -13 0 -5 -12 52 -76 40 -45 74 -103 65 -111 -8 -8 -135 109 -156
145 -32 54 -22 102 21 102 10 0 47 -25 83 -55z m341 -25 c31 -38 79 -86 107
-106 66 -49 53 -57 -17 -10 -51 33 -85 72 -138 157 -32 49 -12 33 48 -41z
m925 21 c-11 -16 -39 -44 -63 -63 -35 -27 -32 -23 18 29 69 70 75 75 45 34z
m-895 -133 c67 -51 106 -72 179 -99 l51 -19 -45 5 c-25 3 -81 17 -124 32 -64
21 -89 35 -126 72 -26 26 -51 63 -57 85 l-12 39 37 -35 c20 -19 64 -55 97 -80z
m-502 79 c18 -8 48 -34 67 -57 28 -36 30 -41 11 -31 -48 26 -29 2 32 -42 89
-64 225 -193 259 -246 49 -77 37 -137 -42 -209 -20 -18 -33 -22 -65 -18 -56 7
-722 307 -738 333 -4 6 23 22 59 36 36 14 113 54 170 87 57 34 109 60 115 58
13 -4 -241 -168 -262 -168 -8 0 6 -12 31 -26 25 -14 61 -35 80 -46 19 -11 27
-13 17 -5 -18 15 -18 15 2 22 11 3 32 20 46 36 22 26 26 28 32 13 4 -12 -2
-23 -21 -37 l-28 -20 23 -13 c31 -17 84 -18 101 -1 49 48 86 66 148 72 50 5
61 4 47 -5 -9 -6 -15 -15 -12 -21 10 -15 23 -10 30 11 7 24 37 26 55 5 11 -13
8 -15 -14 -15 -47 0 -64 -92 -18 -98 35 -5 54 16 50 55 -3 20 0 32 6 30 17 -5
19 -82 3 -95 -7 -6 -58 -13 -113 -14 l-99 -3 80 -29 c44 -16 91 -35 104 -44
l24 -15 -22 32 c-24 34 -18 40 17 15 24 -16 30 -7 10 15 -11 11 -9 13 10 8 12
-3 20 -1 17 3 -9 15 15 22 31 9 24 -19 28 -3 10 43 l-16 43 20 -24 c11 -13 23
-35 27 -50 3 -14 15 -32 25 -39 24 -17 23 -43 -3 -76 -26 -32 -58 -33 -92 -2
-14 13 -28 22 -30 20 -4 -4 -258 81 -287 96 -9 5 -41 18 -71 30 -38 14 -48 16
-35 5 11 -8 23 -15 28 -15 4 0 105 -43 223 -95 118 -52 224 -95 236 -95 30 0
89 62 89 94 0 63 -88 173 -210 262 -86 63 -221 141 -267 155 -24 6 -43 16 -43
21 0 4 15 22 33 38 34 33 55 34 120 7z m1915 -48 c-7 -3 -24 -10 -38 -13 l-25
-7 24 19 c16 13 21 24 16 33 -5 8 2 5 14 -5 16 -15 18 -22 9 -27z m-533 -55
c-37 -32 -121 -72 -187 -90 -67 -17 -57 -10 57 41 54 24 107 51 119 59 35 25
43 17 11 -10z m591 -18 c86 -58 184 -106 217 -106 18 -1 48 -9 67 -19 l34 -19
-83 -42 c-46 -23 -185 -86 -310 -140 -124 -54 -246 -107 -271 -118 -86 -38
-106 -38 -145 1 -31 31 -35 41 -35 88 0 31 8 71 19 94 23 50 98 134 142 159
28 16 24 8 -28 -45 -98 -101 -130 -202 -82 -263 30 -38 64 -34 203 28 66 29
168 73 226 96 101 41 269 129 270 141 0 3 -30 18 -67 33 -72 29 -202 106 -223
131 -23 27 12 17 66 -19z m-2008 -24 c22 -29 15 -81 -17 -113 -39 -38 -57 -37
-100 9 -41 43 -55 43 -77 0 -14 -28 -17 -29 -33 -14 -10 9 -24 16 -32 15 -8 0
-4 -5 9 -11 24 -12 29 -33 9 -41 -20 -8 -59 26 -52 45 4 9 41 35 83 57 42 22
91 49 107 61 34 23 81 19 103 -8z m486 -2 c29 -17 91 -44 137 -61 109 -40 126
-51 69 -43 -41 5 -43 4 -27 -9 10 -8 56 -27 103 -43 94 -30 108 -45 17 -19
-191 55 -390 160 -369 194 10 15 9 15 70 -19z m1429 -4 c37 -16 178 -145 160
-146 -7 0 -43 27 -80 61 -37 33 -84 69 -103 79 -41 22 -24 26 23 6z m-1850
-36 l36 -40 -27 -6 c-15 -3 -32 -7 -39 -9 -7 -2 -10 2 -6 11 3 7 10 14 17 14
7 0 7 3 1 8 -14 10 -36 62 -26 62 4 0 24 -18 44 -40z m1837 3 c56 -31 61 -49
25 -83 l-24 -23 -35 24 c-48 32 -62 66 -40 90 9 11 19 19 21 19 1 0 25 -12 53
-27z m-430 -14 c-96 -80 -472 -197 -542 -169 -19 7 -15 9 22 10 106 1 341 72
465 139 82 45 88 47 55 20z m-1310 -35 c0 -2 -9 -4 -21 -4 -11 0 -18 4 -14 10
5 8 35 3 35 -6z m400 -41 c58 -28 154 -68 214 -89 59 -20 118 -46 130 -55 l21
-18 -28 -1 c-46 0 -176 30 -259 60 -95 35 -159 80 -182 126 -9 20 -13 34 -9
32 4 -2 55 -26 113 -55z m1320 -28 c36 -23 74 -47 85 -53 18 -10 18 -11 2 -12
-10 0 -31 10 -48 22 -29 22 -30 22 -43 2 -41 -56 -41 -56 -107 -60 -80 -6
-113 9 -117 53 -3 34 22 93 39 93 8 0 7 -5 -1 -15 -11 -13 -8 -15 21 -16 19
-1 40 -1 48 0 7 2 10 -2 7 -7 -3 -5 -1 -25 5 -45 8 -29 15 -37 33 -37 26 0 40
13 50 48 9 29 -10 29 -41 0 -26 -24 -30 -14 -8 16 14 18 13 21 -16 33 -17 7
-43 10 -58 8 -25 -6 -25 -5 4 9 40 19 68 12 145 -39z m150 -6 c0 -10 -53 -12
-87 -3 -41 11 -24 19 32 16 30 -2 55 -8 55 -13z m-2140 -4 c-14 -8 -36 -14
-50 -14 -24 1 -24 1 5 14 17 8 39 14 50 14 18 0 17 -1 -5 -14z m717 -85 c37
-13 115 -42 173 -65 145 -59 152 -60 239 -30 103 35 109 31 20 -15 l-76 -39
-7 -62 c-3 -34 -6 -100 -6 -145 0 -46 -3 -84 -6 -84 -4 0 -26 12 -49 27 -38
23 -47 37 -74 109 -28 72 -40 90 -101 148 -39 36 -96 83 -128 103 -57 37 -152
121 -152 134 0 4 22 -7 50 -26 27 -18 80 -43 117 -55z m-411 65 c4 -8 0 -22
-7 -31 -11 -13 -14 -13 -27 0 -17 17 -9 46 13 46 9 0 18 -7 21 -15z m1410 -50
c-1 -58 -19 -71 -24 -17 -3 26 11 72 21 72 2 0 3 -25 3 -55z m-146 40 c0 -4
-47 -55 -105 -116 -115 -120 -171 -191 -205 -257 -26 -49 -34 -50 -20 -3 17
62 62 122 153 209 50 48 110 106 132 129 41 44 45 47 45 38z m108 -79 c-2 -19
-1 -33 3 -30 10 6 59 -17 59 -27 0 -4 -8 -13 -17 -19 -17 -10 -17 -11 1 -8 10
2 25 13 34 26 14 22 14 23 -6 29 -12 3 -22 9 -22 14 0 12 42 11 73 0 18 -7 45
-3 103 15 86 26 98 28 90 16 -3 -5 -44 -19 -92 -32 -47 -13 -105 -36 -128 -52
-22 -15 -51 -28 -63 -28 -16 0 -21 -4 -17 -15 8 -20 -10 -19 -30 1 -22 22 -23
52 -5 112 14 42 22 41 17 -2z m-1060 -105 c16 -12 15 -13 -3 -8 -15 4 -27 -5
-50 -41 -17 -26 -46 -54 -67 -65 -32 -16 -43 -17 -75 -7 -21 7 -42 17 -48 22
-7 7 -3 8 12 4 47 -14 62 -14 91 4 40 25 89 92 104 144 l13 41 3 -40 c2 -22
11 -46 20 -54z m68 53 c54 -36 162 -143 181 -179 9 -16 22 -51 28 -77 17 -62
0 -56 -50 19 -21 31 -77 98 -126 148 -107 111 -121 148 -33 89z m915 -106 c48
-48 52 -50 92 -44 41 6 41 5 17 -9 -14 -8 -36 -14 -50 -15 -38 0 -93 42 -119
92 -20 38 -21 46 -10 73 l13 30 4 -39 c3 -30 14 -49 53 -88z m179 -23 c-14 -8
-29 -14 -35 -14 -5 0 1 6 15 14 14 8 30 14 35 14 6 0 -1 -6 -15 -14z m-1177
-19 c4 -11 1 -13 -11 -10 -16 5 -16 4 0 -9 23 -18 12 -30 -15 -15 -17 9 -19 8
-13 -8 5 -14 4 -16 -4 -8 -9 9 -8 18 5 38 20 29 30 33 38 12z m57 -32 c0 -30
-68 -106 -114 -128 -57 -27 -167 -10 -174 27 -4 21 6 21 51 2 53 -22 88 -19
139 14 59 38 82 72 73 108 -5 23 -4 25 9 14 9 -8 16 -24 16 -37z m852 24 c-24
-24 -13 -56 35 -95 52 -43 103 -50 158 -23 26 13 31 22 35 65 l5 50 11 -31 c7
-17 10 -43 7 -58 -7 -35 -67 -66 -127 -66 -38 0 -53 7 -98 43 -30 24 -54 53
-56 66 -4 23 25 77 36 67 3 -4 0 -12 -6 -18z m48 -8 c-11 -7 -11 -10 -2 -10 7
0 11 -4 7 -10 -3 -5 -12 -7 -21 -3 -11 4 -12 9 -3 19 6 8 17 14 23 14 6 0 4
-5 -4 -10z m-1160 -25 c0 -2 -10 -24 -22 -47 -23 -43 -23 -43 -26 -15 -2 17 4
37 14 48 16 18 34 25 34 14z m120 -30 c15 -18 6 -45 -14 -45 -23 0 -42 40 -25
51 19 12 25 11 39 -6z m1118 -12 c-2 -10 -10 -18 -18 -18 -8 0 -16 8 -18 18
-2 12 3 17 18 17 15 0 20 -5 18 -17z m-167 -22 c-13 -10 -71 -37 -130 -61 -58
-24 -144 -62 -191 -86 l-85 -42 -45 24 c-25 13 -92 42 -150 65 -152 59 -220
91 -220 100 0 5 4 9 9 9 15 0 241 -89 323 -127 l76 -35 119 50 c282 120 346
143 294 103z m7 -74 c-5 -21 -102 -176 -106 -172 -13 13 85 198 99 189 6 -3 9
-11 7 -17z m-750 -79 c23 -43 40 -78 38 -78 -9 0 -96 142 -96 157 0 24 11 9
58 -79z m781 50 c-28 -29 -119 -184 -119 -203 0 -4 12 1 28 11 55 37 220 124
233 124 24 -1 -30 -36 -254 -165 l-48 -27 17 43 c23 59 103 196 133 225 36 36
46 29 10 -8z m-841 -20 c65 -95 125 -238 99 -238 -12 0 -252 133 -286 159 -13
10 -20 21 -15 24 6 3 72 -31 147 -75 76 -44 140 -78 144 -74 3 3 -15 41 -42
83 -78 126 -97 163 -86 163 5 0 23 -19 39 -42z m-193 -9 c-73 -75 -107 -74
-39 1 20 22 46 40 57 40 18 0 16 -5 -18 -41z m510 -52 c16 -12 34 -27 38 -34
5 -7 12 -11 18 -8 5 4 9 -26 10 -72 1 -43 4 -89 8 -103 7 -21 10 -16 20 35 19
96 31 135 43 135 7 0 7 -5 -1 -14 -13 -15 -28 -126 -18 -126 3 0 18 20 33 45
14 25 28 45 31 45 6 0 -45 -89 -63 -111 -23 -26 -17 -45 7 -23 22 19 22 19 11
-1 -7 -11 -22 -32 -35 -48 l-23 -27 -20 22 c-63 71 -189 273 -208 335 l-7 22
63 -26 c35 -14 76 -35 93 -46z m-454 36 c-12 -20 -14 -14 -5 12 4 9 9 14 11
11 3 -2 0 -13 -6 -23z m975 0 c-18 -35 -45 -70 -46 -60 0 8 51 87 57 87 2 0
-3 -12 -11 -27z m-873 -22 c23 -34 24 -40 10 -45 -16 -6 -22 -1 -44 37 -9 16
-6 47 4 47 3 0 16 -18 30 -39z m580 -36 c-19 -36 -36 -65 -39 -65 -5 0 44 100
58 118 20 24 15 11 -19 -53z m331 43 c-7 -23 -6 -23 13 1 12 15 22 20 26 14 4
-6 -4 -18 -18 -27 -14 -9 -25 -13 -25 -10 0 4 -9 -1 -20 -11 -26 -23 -26 -11
1 26 24 35 33 37 23 7z m-963 -20 c13 -17 17 -28 8 -23 -28 16 -48 38 -43 46
8 13 11 12 35 -23z"/>
<path d="M2123 4152 c-72 -102 -126 -230 -58 -137 38 52 109 184 102 191 -2 2
-21 -22 -44 -54z"/>
<path d="M2054 3953 c-35 -48 -38 -59 -10 -33 31 28 51 60 38 60 -4 0 -17 -12
-28 -27z"/>
<path d="M2992 3605 c4 -86 5 -89 41 -121 87 -80 160 -37 108 64 -19 38 -94
112 -135 134 -18 10 -18 6 -14 -77z"/>
<path d="M2376 3713 c-6 -14 -5 -15 5 -6 7 7 10 15 7 18 -3 3 -9 -2 -12 -12z"/>
<path d="M2330 3655 c13 -14 26 -25 28 -25 3 0 -5 11 -18 25 -13 14 -26 25
-28 25 -3 0 5 -11 18 -25z"/>
<path d="M1741 3334 c0 -11 3 -14 6 -6 3 7 2 16 -1 19 -3 4 -6 -2 -5 -13z"/>
<path d="M2045 2732 c3 -9 24 -89 45 -177 35 -145 98 -339 100 -307 0 8 36
-23 79 -67 44 -45 85 -81 91 -81 8 0 10 16 6 53 -3 28 -11 131 -16 226 -13
223 -19 243 -73 275 -23 14 -54 28 -69 31 -34 9 -34 11 -12 -170 18 -150 37
-235 65 -285 l19 -35 -36 40 c-20 22 -46 60 -59 85 -21 42 -91 338 -81 347 6
6 11 -14 36 -132 25 -119 49 -209 56 -203 2 3 -5 81 -16 174 -11 93 -20 176
-20 186 0 11 -19 23 -61 37 -55 18 -60 19 -54 3z m234 -426 c12 -65 20 -120
18 -123 -5 -4 -34 132 -43 202 -12 91 4 42 25 -79z"/>
<path d="M1599 1754 c-12 -15 -11 -19 9 -32 33 -22 27 -35 -8 -17 -32 17 -50
13 -50 -11 0 -8 -4 -14 -10 -14 -5 0 -10 5 -10 11 0 5 -5 7 -11 3 -8 -4 -2
-12 15 -21 23 -12 36 -12 79 -2 29 7 53 14 55 15 4 2 -48 84 -53 84 -1 0 -9
-7 -16 -16z"/>
<path d="M1660 1753 c0 -5 10 -24 22 -43 l21 -35 8 29 c6 23 4 32 -9 42 -19
15 -42 18 -42 7z"/>
<path d="M1851 1599 c-20 -21 -20 -21 6 -45 32 -30 57 -31 77 -3 13 20 13 24
-2 45 -21 29 -55 30 -81 3z m65 -14 c-3 -8 0 -15 6 -15 7 0 6 -5 -2 -15 -16
-19 -34 -19 -50 0 -18 22 -5 45 26 45 19 0 25 -4 20 -15z"/>
<path d="M1875 1571 c-3 -5 -1 -12 4 -15 5 -3 11 1 15 9 6 16 -9 21 -19 6z"/>
<path d="M1503 1901 c-18 -15 -33 -31 -33 -36 0 -4 8 -1 18 7 11 10 25 12 42
7 23 -7 24 -7 3 -8 -35 -2 -46 -34 -22 -60 25 -26 52 -15 67 28 9 26 8 32 -13
45 -13 9 -32 13 -42 10 -12 -4 -10 0 7 15 14 11 21 20 15 20 -5 0 -25 -12 -42
-28z m67 -41 c0 -5 -4 -10 -10 -10 -5 0 -10 5 -10 10 0 6 5 10 10 10 6 0 10
-4 10 -10z m-22 -28 c2 -14 -2 -22 -12 -22 -19 0 -29 17 -22 36 8 22 30 12 34
-14z"/>
<path d="M1318 1783 c7 -3 16 -2 19 1 4 3 -2 6 -13 5 -11 0 -14 -3 -6 -6z"/>
<path d="M3436 1873 c-15 -39 52 -89 81 -60 20 19 11 33 -37 57 -34 17 -39 18
-44 3z m68 -44 c-10 -16 -24 -9 -24 12 0 18 2 19 15 9 8 -7 12 -16 9 -21z"/>
<path d="M3277 1753 c-14 -13 -7 -52 11 -62 34 -18 66 -17 70 2 8 41 -54 87
-81 60z m43 -33 c0 -11 -6 -20 -14 -20 -18 0 -29 16 -21 30 11 18 35 11 35
-10z"/>
<path d="M2270 1611 c14 -12 80 -50 148 -85 103 -53 123 -61 120 -44 -2 14
-28 30 -93 57 -49 21 -115 50 -145 65 -43 21 -50 23 -30 7z"/>
<path d="M2460 1381 c19 -16 45 -42 57 -57 l23 -29 0 30 c-1 24 -9 35 -44 58
-57 36 -81 34 -36 -2z"/>
<path d="M3167 1583 c-4 -3 -7 -13 -7 -20 0 -12 3 -12 15 1 8 8 15 17 15 20 0
8 -15 7 -23 -1z"/>
<path d="M1985 1350 c3 -5 11 -10 16 -10 6 0 7 5 4 10 -3 6 -11 10 -16 10 -6
0 -7 -4 -4 -10z"/>
<path d="M2395 1140 c14 -46 33 -89 59 -127 33 -48 33 -41 -4 48 -30 74 -70
132 -55 79z"/>
<path d="M2470 1115 c0 -24 36 -165 44 -173 11 -10 6 39 -10 106 -17 68 -34
102 -34 67z"/>
</g>
</svg>